<mxfile host="Electron" agent="Mozilla/5.0 (Windows NT 10.0; Win64; x64) AppleWebKit/537.36 (KHTML, like Gecko) draw.io/27.0.5 Chrome/134.0.6998.205 Electron/35.3.0 Safari/537.36" version="27.0.5">
  <diagram name="Page-1" id="okh1VXxzsCY8qhAmtDJN">
    <mxGraphModel dx="1818" dy="750" grid="1" gridSize="10" guides="1" tooltips="1" connect="1" arrows="1" fold="1" page="1" pageScale="1" pageWidth="827" pageHeight="1169" math="0" shadow="0">
      <root>
        <mxCell id="0" />
        <mxCell id="1" parent="0" />
        <mxCell id="ipDesZMDNSXh6acfg1Pq-1" value="&lt;font face=&quot;monospace&quot;&gt;systemUser&lt;/font&gt;" style="html=1;dashed=0;whiteSpace=wrap;" parent="1" vertex="1">
          <mxGeometry x="-240" y="550" width="100" height="50" as="geometry" />
        </mxCell>
        <mxCell id="ipDesZMDNSXh6acfg1Pq-5" value="Name" style="ellipse;whiteSpace=wrap;html=1;align=center;fontStyle=4;" parent="1" vertex="1">
          <mxGeometry x="-360" y="695" width="100" height="40" as="geometry" />
        </mxCell>
        <mxCell id="ipDesZMDNSXh6acfg1Pq-13" value="" style="endArrow=none;html=1;rounded=0;entryX=0;entryY=1;entryDx=0;entryDy=0;exitX=0.5;exitY=0;exitDx=0;exitDy=0;" parent="1" source="ipDesZMDNSXh6acfg1Pq-5" target="ipDesZMDNSXh6acfg1Pq-1" edge="1">
          <mxGeometry width="50" height="50" relative="1" as="geometry">
            <mxPoint x="-280" y="700" as="sourcePoint" />
            <mxPoint x="90" y="690" as="targetPoint" />
          </mxGeometry>
        </mxCell>
        <mxCell id="ipDesZMDNSXh6acfg1Pq-14" value="" style="endArrow=none;html=1;rounded=0;entryX=0.5;entryY=1;entryDx=0;entryDy=0;exitX=0.5;exitY=0;exitDx=0;exitDy=0;" parent="1" source="ipDesZMDNSXh6acfg1Pq-4" target="ipDesZMDNSXh6acfg1Pq-1" edge="1">
          <mxGeometry width="50" height="50" relative="1" as="geometry">
            <mxPoint x="-190" y="700" as="sourcePoint" />
            <mxPoint x="-140" y="650" as="targetPoint" />
          </mxGeometry>
        </mxCell>
        <mxCell id="ipDesZMDNSXh6acfg1Pq-22" value="owns" style="rhombus;whiteSpace=wrap;html=1;" parent="1" vertex="1">
          <mxGeometry x="20" y="500" width="106" height="60" as="geometry" />
        </mxCell>
        <mxCell id="ipDesZMDNSXh6acfg1Pq-23" value="" style="endArrow=none;html=1;rounded=0;entryX=0;entryY=0.5;entryDx=0;entryDy=0;exitX=1;exitY=0.5;exitDx=0;exitDy=0;" parent="1" source="ipDesZMDNSXh6acfg1Pq-1" target="ipDesZMDNSXh6acfg1Pq-22" edge="1">
          <mxGeometry width="50" height="50" relative="1" as="geometry">
            <mxPoint x="-80" y="730" as="sourcePoint" />
            <mxPoint x="-30" y="680" as="targetPoint" />
          </mxGeometry>
        </mxCell>
        <mxCell id="ipDesZMDNSXh6acfg1Pq-24" value="1" style="text;html=1;align=center;verticalAlign=middle;resizable=0;points=[];autosize=1;strokeColor=none;fillColor=none;" parent="1" vertex="1">
          <mxGeometry y="500" width="30" height="30" as="geometry" />
        </mxCell>
        <mxCell id="ipDesZMDNSXh6acfg1Pq-25" value="" style="endArrow=none;html=1;rounded=0;entryX=1;entryY=0.5;entryDx=0;entryDy=0;" parent="1" target="ipDesZMDNSXh6acfg1Pq-22" edge="1">
          <mxGeometry width="50" height="50" relative="1" as="geometry">
            <mxPoint x="240" y="590" as="sourcePoint" />
            <mxPoint x="230" y="660" as="targetPoint" />
          </mxGeometry>
        </mxCell>
        <mxCell id="ipDesZMDNSXh6acfg1Pq-26" value="Costumer" style="html=1;dashed=0;whiteSpace=wrap;" parent="1" vertex="1">
          <mxGeometry x="240" y="580" width="100" height="50" as="geometry" />
        </mxCell>
        <mxCell id="ipDesZMDNSXh6acfg1Pq-27" value="1" style="text;html=1;align=center;verticalAlign=middle;resizable=0;points=[];autosize=1;strokeColor=none;fillColor=none;" parent="1" vertex="1">
          <mxGeometry x="120" y="500" width="30" height="30" as="geometry" />
        </mxCell>
        <mxCell id="ipDesZMDNSXh6acfg1Pq-28" value="" style="endArrow=none;html=1;rounded=0;entryX=0;entryY=1;entryDx=0;entryDy=0;exitX=0.5;exitY=0;exitDx=0;exitDy=0;" parent="1" source="ipDesZMDNSXh6acfg1Pq-38" target="ipDesZMDNSXh6acfg1Pq-26" edge="1">
          <mxGeometry width="50" height="50" relative="1" as="geometry">
            <mxPoint x="180" y="720" as="sourcePoint" />
            <mxPoint x="240" y="660" as="targetPoint" />
          </mxGeometry>
        </mxCell>
        <mxCell id="ipDesZMDNSXh6acfg1Pq-38" value="customerId" style="ellipse;whiteSpace=wrap;html=1;align=center;fontStyle=4;" parent="1" vertex="1">
          <mxGeometry x="126" y="685" width="100" height="40" as="geometry" />
        </mxCell>
        <mxCell id="ipDesZMDNSXh6acfg1Pq-53" value="" style="endArrow=none;html=1;rounded=0;entryX=0;entryY=0.5;entryDx=0;entryDy=0;exitX=1;exitY=0;exitDx=0;exitDy=0;" parent="1" source="ipDesZMDNSXh6acfg1Pq-26" target="ipDesZMDNSXh6acfg1Pq-58" edge="1">
          <mxGeometry width="50" height="50" relative="1" as="geometry">
            <mxPoint x="370" y="605" as="sourcePoint" />
            <mxPoint x="510" y="540" as="targetPoint" />
          </mxGeometry>
        </mxCell>
        <mxCell id="ipDesZMDNSXh6acfg1Pq-58" value="owns" style="rhombus;whiteSpace=wrap;html=1;" parent="1" vertex="1">
          <mxGeometry x="514" y="510" width="106" height="60" as="geometry" />
        </mxCell>
        <mxCell id="ipDesZMDNSXh6acfg1Pq-59" value="M" style="text;html=1;align=center;verticalAlign=middle;resizable=0;points=[];autosize=1;strokeColor=none;fillColor=none;" parent="1" vertex="1">
          <mxGeometry x="490" y="510" width="30" height="30" as="geometry" />
        </mxCell>
        <mxCell id="ipDesZMDNSXh6acfg1Pq-60" value="" style="endArrow=none;html=1;rounded=0;entryX=1;entryY=0.5;entryDx=0;entryDy=0;exitX=0;exitY=0.5;exitDx=0;exitDy=0;" parent="1" source="ipDesZMDNSXh6acfg1Pq-61" target="ipDesZMDNSXh6acfg1Pq-76" edge="1">
          <mxGeometry width="50" height="50" relative="1" as="geometry">
            <mxPoint x="1550" y="620" as="sourcePoint" />
            <mxPoint x="1470.0000000000005" y="480.0000000000001" as="targetPoint" />
          </mxGeometry>
        </mxCell>
        <mxCell id="ipDesZMDNSXh6acfg1Pq-61" value="Accident" style="html=1;dashed=0;whiteSpace=wrap;" parent="1" vertex="1">
          <mxGeometry x="1360" y="530" width="100" height="50" as="geometry" />
        </mxCell>
        <mxCell id="ipDesZMDNSXh6acfg1Pq-62" value="M" style="text;html=1;align=center;verticalAlign=middle;resizable=0;points=[];autosize=1;strokeColor=none;fillColor=none;" parent="1" vertex="1">
          <mxGeometry x="620" y="510" width="30" height="30" as="geometry" />
        </mxCell>
        <mxCell id="ipDesZMDNSXh6acfg1Pq-63" value="" style="endArrow=none;html=1;rounded=0;entryX=0;entryY=1;entryDx=0;entryDy=0;exitX=0.5;exitY=0;exitDx=0;exitDy=0;" parent="1" source="ipDesZMDNSXh6acfg1Pq-67" target="ipDesZMDNSXh6acfg1Pq-61" edge="1">
          <mxGeometry width="50" height="50" relative="1" as="geometry">
            <mxPoint x="1490" y="750" as="sourcePoint" />
            <mxPoint x="1550" y="690" as="targetPoint" />
          </mxGeometry>
        </mxCell>
        <mxCell id="ipDesZMDNSXh6acfg1Pq-65" value="" style="endArrow=none;html=1;rounded=0;exitX=0.5;exitY=0;exitDx=0;exitDy=0;entryX=0.25;entryY=1;entryDx=0;entryDy=0;" parent="1" source="ipDesZMDNSXh6acfg1Pq-69" target="ipDesZMDNSXh6acfg1Pq-61" edge="1">
          <mxGeometry width="50" height="50" relative="1" as="geometry">
            <mxPoint x="1620" y="760" as="sourcePoint" />
            <mxPoint x="1610" y="660" as="targetPoint" />
            <Array as="points" />
          </mxGeometry>
        </mxCell>
        <mxCell id="ipDesZMDNSXh6acfg1Pq-66" value="" style="endArrow=none;html=1;rounded=0;entryX=0.887;entryY=1.04;entryDx=0;entryDy=0;entryPerimeter=0;exitX=0.5;exitY=0;exitDx=0;exitDy=0;" parent="1" source="ipDesZMDNSXh6acfg1Pq-70" target="ipDesZMDNSXh6acfg1Pq-61" edge="1">
          <mxGeometry width="50" height="50" relative="1" as="geometry">
            <mxPoint x="1680" y="740" as="sourcePoint" />
            <mxPoint x="1700" y="700" as="targetPoint" />
          </mxGeometry>
        </mxCell>
        <mxCell id="ipDesZMDNSXh6acfg1Pq-67" value="&lt;span style=&quot;text-wrap-mode: nowrap;&quot;&gt;AccidentId&lt;/span&gt;" style="ellipse;whiteSpace=wrap;html=1;align=center;fontStyle=4;" parent="1" vertex="1">
          <mxGeometry x="1170" y="685" width="100" height="40" as="geometry" />
        </mxCell>
        <mxCell id="ipDesZMDNSXh6acfg1Pq-70" value="" style="ellipse;whiteSpace=wrap;html=1;align=center;fontStyle=4;" parent="1" vertex="1">
          <mxGeometry x="1400" y="655" width="100" height="40" as="geometry" />
        </mxCell>
        <mxCell id="ipDesZMDNSXh6acfg1Pq-73" value="&lt;blockquote style=&quot;margin: 0 0 0 40px; border: none; padding: 0px;&quot;&gt;CarId&lt;/blockquote&gt;" style="text;html=1;align=center;verticalAlign=middle;resizable=0;points=[];autosize=1;strokeColor=none;fillColor=none;" parent="1" vertex="1">
          <mxGeometry x="1380" y="660" width="90" height="30" as="geometry" />
        </mxCell>
        <mxCell id="ipDesZMDNSXh6acfg1Pq-76" value="Involved" style="rhombus;whiteSpace=wrap;html=1;" parent="1" vertex="1">
          <mxGeometry x="1050" y="470" width="106" height="60" as="geometry" />
        </mxCell>
        <mxCell id="ipDesZMDNSXh6acfg1Pq-77" value="1" style="text;html=1;align=center;verticalAlign=middle;resizable=0;points=[];autosize=1;strokeColor=none;fillColor=none;" parent="1" vertex="1">
          <mxGeometry x="1020" y="470" width="30" height="30" as="geometry" />
        </mxCell>
        <mxCell id="ipDesZMDNSXh6acfg1Pq-78" value="" style="endArrow=none;html=1;rounded=0;exitX=1;exitY=0.25;exitDx=0;exitDy=0;entryX=0;entryY=0.5;entryDx=0;entryDy=0;" parent="1" source="ipDesZMDNSXh6acfg1Pq-79" target="ipDesZMDNSXh6acfg1Pq-76" edge="1">
          <mxGeometry width="50" height="50" relative="1" as="geometry">
            <mxPoint x="1220" y="685" as="sourcePoint" />
            <mxPoint x="1040" y="550" as="targetPoint" />
          </mxGeometry>
        </mxCell>
        <mxCell id="ipDesZMDNSXh6acfg1Pq-79" value="Car" style="html=1;dashed=0;whiteSpace=wrap;" parent="1" vertex="1">
          <mxGeometry x="791" y="520" width="100" height="50" as="geometry" />
        </mxCell>
        <mxCell id="ipDesZMDNSXh6acfg1Pq-80" value="M" style="text;html=1;align=center;verticalAlign=middle;resizable=0;points=[];autosize=1;strokeColor=none;fillColor=none;" parent="1" vertex="1">
          <mxGeometry x="1156" y="470" width="30" height="30" as="geometry" />
        </mxCell>
        <mxCell id="ipDesZMDNSXh6acfg1Pq-81" value="" style="endArrow=none;html=1;rounded=0;entryX=0.25;entryY=1;entryDx=0;entryDy=0;exitX=0.5;exitY=0;exitDx=0;exitDy=0;" parent="1" source="ipDesZMDNSXh6acfg1Pq-85" target="ipDesZMDNSXh6acfg1Pq-79" edge="1">
          <mxGeometry width="50" height="50" relative="1" as="geometry">
            <mxPoint x="1160" y="815" as="sourcePoint" />
            <mxPoint x="1220" y="755" as="targetPoint" />
          </mxGeometry>
        </mxCell>
        <mxCell id="ipDesZMDNSXh6acfg1Pq-82" value="" style="endArrow=none;html=1;rounded=0;entryX=0.356;entryY=1.006;entryDx=0;entryDy=0;entryPerimeter=0;exitX=0.5;exitY=0;exitDx=0;exitDy=0;" parent="1" source="ipDesZMDNSXh6acfg1Pq-86" target="ipDesZMDNSXh6acfg1Pq-79" edge="1">
          <mxGeometry width="50" height="50" relative="1" as="geometry">
            <mxPoint x="1230" y="835" as="sourcePoint" />
            <mxPoint x="1270" y="745" as="targetPoint" />
          </mxGeometry>
        </mxCell>
        <mxCell id="ipDesZMDNSXh6acfg1Pq-83" value="" style="endArrow=none;html=1;rounded=0;exitX=0.5;exitY=0;exitDx=0;exitDy=0;entryX=1;entryY=1;entryDx=0;entryDy=0;" parent="1" source="ipDesZMDNSXh6acfg1Pq-87" target="ipDesZMDNSXh6acfg1Pq-79" edge="1">
          <mxGeometry width="50" height="50" relative="1" as="geometry">
            <mxPoint x="1290" y="825" as="sourcePoint" />
            <mxPoint x="1280" y="725" as="targetPoint" />
            <Array as="points" />
          </mxGeometry>
        </mxCell>
        <mxCell id="ipDesZMDNSXh6acfg1Pq-96" style="edgeStyle=orthogonalEdgeStyle;rounded=0;orthogonalLoop=1;jettySize=auto;html=1;exitX=1;exitY=0;exitDx=0;exitDy=0;" parent="1" source="ipDesZMDNSXh6acfg1Pq-85" edge="1">
          <mxGeometry relative="1" as="geometry">
            <mxPoint x="765" y="740.0000000000001" as="targetPoint" />
          </mxGeometry>
        </mxCell>
        <mxCell id="ipDesZMDNSXh6acfg1Pq-85" value="CarId" style="ellipse;whiteSpace=wrap;html=1;align=center;fontStyle=4;" parent="1" vertex="1">
          <mxGeometry x="680" y="735" width="100" height="40" as="geometry" />
        </mxCell>
        <mxCell id="ipDesZMDNSXh6acfg1Pq-86" value="" style="ellipse;whiteSpace=wrap;html=1;align=center;fontStyle=4;" parent="1" vertex="1">
          <mxGeometry x="790" y="715" width="100" height="40" as="geometry" />
        </mxCell>
        <mxCell id="ipDesZMDNSXh6acfg1Pq-89" value="Plate_number" style="text;html=1;align=center;verticalAlign=middle;resizable=0;points=[];autosize=1;strokeColor=none;fillColor=none;" parent="1" vertex="1">
          <mxGeometry x="791" y="720" width="100" height="30" as="geometry" />
        </mxCell>
        <mxCell id="ipDesZMDNSXh6acfg1Pq-99" value="" style="endArrow=none;html=1;rounded=0;entryX=0;entryY=0.5;entryDx=0;entryDy=0;exitX=1;exitY=0.5;exitDx=0;exitDy=0;" parent="1" source="ipDesZMDNSXh6acfg1Pq-58" target="ipDesZMDNSXh6acfg1Pq-79" edge="1">
          <mxGeometry width="50" height="50" relative="1" as="geometry">
            <mxPoint x="620" y="580" as="sourcePoint" />
            <mxPoint x="720" y="520" as="targetPoint" />
            <Array as="points" />
          </mxGeometry>
        </mxCell>
        <mxCell id="exIWR_tdd47xBgkcnG5o-1" style="edgeStyle=orthogonalEdgeStyle;rounded=0;orthogonalLoop=1;jettySize=auto;html=1;exitX=0.5;exitY=1;exitDx=0;exitDy=0;" parent="1" source="ipDesZMDNSXh6acfg1Pq-1" target="ipDesZMDNSXh6acfg1Pq-1" edge="1">
          <mxGeometry relative="1" as="geometry" />
        </mxCell>
        <mxCell id="exIWR_tdd47xBgkcnG5o-27" value="&lt;span style=&quot;text-align: left;&quot;&gt;accident information&lt;/span&gt;" style="ellipse;whiteSpace=wrap;html=1;" parent="1" vertex="1">
          <mxGeometry x="1530" y="665" width="135" height="50" as="geometry" />
        </mxCell>
        <mxCell id="exIWR_tdd47xBgkcnG5o-28" value="" style="endArrow=none;html=1;rounded=0;entryX=1;entryY=0.5;entryDx=0;entryDy=0;exitX=0.222;exitY=0.1;exitDx=0;exitDy=0;exitPerimeter=0;" parent="1" source="exIWR_tdd47xBgkcnG5o-27" target="ipDesZMDNSXh6acfg1Pq-61" edge="1">
          <mxGeometry width="50" height="50" relative="1" as="geometry">
            <mxPoint x="1597.5" y="640" as="sourcePoint" />
            <mxPoint x="1510" y="556" as="targetPoint" />
          </mxGeometry>
        </mxCell>
        <mxCell id="exIWR_tdd47xBgkcnG5o-38" value="Role" style="ellipse;whiteSpace=wrap;html=1;" parent="1" vertex="1">
          <mxGeometry x="-100" y="695" width="100" height="50" as="geometry" />
        </mxCell>
        <mxCell id="exIWR_tdd47xBgkcnG5o-39" value="" style="endArrow=none;html=1;rounded=0;entryX=1;entryY=1;entryDx=0;entryDy=0;exitX=0;exitY=0;exitDx=0;exitDy=0;" parent="1" source="exIWR_tdd47xBgkcnG5o-38" target="ipDesZMDNSXh6acfg1Pq-1" edge="1">
          <mxGeometry width="50" height="50" relative="1" as="geometry">
            <mxPoint x="-75" y="700" as="sourcePoint" />
            <mxPoint x="-135" y="600" as="targetPoint" />
          </mxGeometry>
        </mxCell>
        <mxCell id="exIWR_tdd47xBgkcnG5o-40" value="Name" style="ellipse;whiteSpace=wrap;html=1;" parent="1" vertex="1">
          <mxGeometry x="360" y="685" width="91" height="50" as="geometry" />
        </mxCell>
        <mxCell id="exIWR_tdd47xBgkcnG5o-41" value="" style="endArrow=none;html=1;rounded=0;entryX=1;entryY=1;entryDx=0;entryDy=0;exitX=0;exitY=0;exitDx=0;exitDy=0;" parent="1" source="exIWR_tdd47xBgkcnG5o-40" target="ipDesZMDNSXh6acfg1Pq-26" edge="1">
          <mxGeometry width="50" height="50" relative="1" as="geometry">
            <mxPoint x="431" y="740" as="sourcePoint" />
            <mxPoint x="360" y="627" as="targetPoint" />
          </mxGeometry>
        </mxCell>
        <mxCell id="exIWR_tdd47xBgkcnG5o-43" value="&lt;span style=&quot;text-align: left;&quot;&gt;Phone&lt;/span&gt;" style="ellipse;whiteSpace=wrap;html=1;" parent="1" vertex="1">
          <mxGeometry x="110" y="420" width="91" height="50" as="geometry" />
        </mxCell>
        <mxCell id="exIWR_tdd47xBgkcnG5o-44" value="" style="endArrow=none;html=1;rounded=0;entryX=0.5;entryY=1;entryDx=0;entryDy=0;exitX=0;exitY=0;exitDx=0;exitDy=0;" parent="1" source="ipDesZMDNSXh6acfg1Pq-26" target="exIWR_tdd47xBgkcnG5o-43" edge="1">
          <mxGeometry width="50" height="50" relative="1" as="geometry">
            <mxPoint x="390" y="730" as="sourcePoint" />
            <mxPoint x="440" y="680" as="targetPoint" />
            <Array as="points" />
          </mxGeometry>
        </mxCell>
        <mxCell id="exIWR_tdd47xBgkcnG5o-45" value="" style="endArrow=none;html=1;rounded=0;entryX=0.5;entryY=1;entryDx=0;entryDy=0;exitX=0;exitY=0;exitDx=0;exitDy=0;" parent="1" target="exIWR_tdd47xBgkcnG5o-46" edge="1">
          <mxGeometry width="50" height="50" relative="1" as="geometry">
            <mxPoint x="291" y="580" as="sourcePoint" />
            <mxPoint x="297" y="450" as="targetPoint" />
            <Array as="points" />
          </mxGeometry>
        </mxCell>
        <mxCell id="exIWR_tdd47xBgkcnG5o-46" value="&lt;span style=&quot;text-align: left;&quot;&gt;Email&lt;/span&gt;" style="ellipse;whiteSpace=wrap;html=1;" parent="1" vertex="1">
          <mxGeometry x="220" y="410" width="91" height="50" as="geometry" />
        </mxCell>
        <mxCell id="exIWR_tdd47xBgkcnG5o-48" value="&lt;span style=&quot;font-family: monospace; text-align: left;&quot;&gt;Address&lt;/span&gt;" style="ellipse;whiteSpace=wrap;html=1;" parent="1" vertex="1">
          <mxGeometry x="340" y="420" width="91" height="50" as="geometry" />
        </mxCell>
        <mxCell id="exIWR_tdd47xBgkcnG5o-49" value="" style="endArrow=none;html=1;rounded=0;entryX=0.5;entryY=1;entryDx=0;entryDy=0;exitX=0.75;exitY=0;exitDx=0;exitDy=0;" parent="1" source="ipDesZMDNSXh6acfg1Pq-26" target="exIWR_tdd47xBgkcnG5o-48" edge="1">
          <mxGeometry width="50" height="50" relative="1" as="geometry">
            <mxPoint x="340" y="570" as="sourcePoint" />
            <mxPoint x="345" y="440" as="targetPoint" />
            <Array as="points" />
          </mxGeometry>
        </mxCell>
        <mxCell id="exIWR_tdd47xBgkcnG5o-51" value="Year" style="ellipse;whiteSpace=wrap;html=1;" parent="1" vertex="1">
          <mxGeometry x="600" y="595" width="115" height="50" as="geometry" />
        </mxCell>
        <mxCell id="exIWR_tdd47xBgkcnG5o-55" value="" style="endArrow=none;html=1;rounded=0;entryX=0.5;entryY=0;entryDx=0;entryDy=0;exitX=0;exitY=0.75;exitDx=0;exitDy=0;" parent="1" source="ipDesZMDNSXh6acfg1Pq-79" target="exIWR_tdd47xBgkcnG5o-51" edge="1">
          <mxGeometry width="50" height="50" relative="1" as="geometry">
            <mxPoint x="840" y="490" as="sourcePoint" />
            <mxPoint x="900.5" y="440" as="targetPoint" />
          </mxGeometry>
        </mxCell>
        <mxCell id="exIWR_tdd47xBgkcnG5o-56" value="" style="endArrow=none;html=1;rounded=0;entryX=0.5;entryY=1;entryDx=0;entryDy=0;exitX=0.67;exitY=0.015;exitDx=0;exitDy=0;exitPerimeter=0;" parent="1" source="ipDesZMDNSXh6acfg1Pq-79" target="exIWR_tdd47xBgkcnG5o-89" edge="1">
          <mxGeometry width="50" height="50" relative="1" as="geometry">
            <mxPoint x="850" y="510" as="sourcePoint" />
            <mxPoint x="867" y="410" as="targetPoint" />
          </mxGeometry>
        </mxCell>
        <mxCell id="exIWR_tdd47xBgkcnG5o-58" style="edgeStyle=orthogonalEdgeStyle;rounded=0;orthogonalLoop=1;jettySize=auto;html=1;exitX=0.5;exitY=1;exitDx=0;exitDy=0;" parent="1" edge="1">
          <mxGeometry relative="1" as="geometry">
            <mxPoint x="867" y="410" as="sourcePoint" />
            <mxPoint x="867" y="410" as="targetPoint" />
          </mxGeometry>
        </mxCell>
        <mxCell id="exIWR_tdd47xBgkcnG5o-60" value="Year" style="ellipse;whiteSpace=wrap;html=1;" parent="1" vertex="1">
          <mxGeometry x="1295" y="410" width="70" height="50" as="geometry" />
        </mxCell>
        <mxCell id="exIWR_tdd47xBgkcnG5o-61" value="DamageCost" style="ellipse;whiteSpace=wrap;html=1;" parent="1" vertex="1">
          <mxGeometry x="1460" y="410" width="115" height="50" as="geometry" />
        </mxCell>
        <mxCell id="exIWR_tdd47xBgkcnG5o-62" value="" style="endArrow=none;html=1;rounded=0;entryX=0.5;entryY=1;entryDx=0;entryDy=0;exitX=0.25;exitY=0;exitDx=0;exitDy=0;" parent="1" source="ipDesZMDNSXh6acfg1Pq-61" target="exIWR_tdd47xBgkcnG5o-60" edge="1">
          <mxGeometry width="50" height="50" relative="1" as="geometry">
            <mxPoint x="1381" y="523" as="sourcePoint" />
            <mxPoint x="1380" y="450" as="targetPoint" />
          </mxGeometry>
        </mxCell>
        <mxCell id="exIWR_tdd47xBgkcnG5o-64" value="" style="endArrow=none;html=1;rounded=0;entryX=0.417;entryY=0.995;entryDx=0;entryDy=0;entryPerimeter=0;exitX=0.75;exitY=0;exitDx=0;exitDy=0;" parent="1" source="ipDesZMDNSXh6acfg1Pq-61" target="exIWR_tdd47xBgkcnG5o-61" edge="1">
          <mxGeometry width="50" height="50" relative="1" as="geometry">
            <mxPoint x="1500" y="530" as="sourcePoint" />
            <mxPoint x="1550" y="480" as="targetPoint" />
          </mxGeometry>
        </mxCell>
        <mxCell id="exIWR_tdd47xBgkcnG5o-65" value="&lt;span style=&quot;text-align: left;&quot;&gt;monthly reports for the total accidents&lt;/span&gt;" style="html=1;dashed=0;whiteSpace=wrap;" parent="1" vertex="1">
          <mxGeometry x="2010" y="520" width="130" height="50" as="geometry" />
        </mxCell>
        <mxCell id="exIWR_tdd47xBgkcnG5o-71" value="&lt;code data-end=&quot;1112&quot; data-start=&quot;1100&quot;&gt;summarizes&lt;/code&gt;" style="rhombus;whiteSpace=wrap;html=1;" parent="1" vertex="1">
          <mxGeometry x="1740" y="440" width="106" height="60" as="geometry" />
        </mxCell>
        <mxCell id="exIWR_tdd47xBgkcnG5o-72" value="" style="endArrow=none;html=1;rounded=0;entryX=1;entryY=0.5;entryDx=0;entryDy=0;exitX=0.19;exitY=0.012;exitDx=0;exitDy=0;exitPerimeter=0;" parent="1" source="exIWR_tdd47xBgkcnG5o-65" target="exIWR_tdd47xBgkcnG5o-71" edge="1">
          <mxGeometry width="50" height="50" relative="1" as="geometry">
            <mxPoint x="2064" y="525" as="sourcePoint" />
            <mxPoint x="1860" y="470" as="targetPoint" />
          </mxGeometry>
        </mxCell>
        <mxCell id="exIWR_tdd47xBgkcnG5o-73" value="" style="endArrow=none;html=1;rounded=0;entryX=1;entryY=0.25;entryDx=0;entryDy=0;exitX=0;exitY=0.5;exitDx=0;exitDy=0;" parent="1" source="exIWR_tdd47xBgkcnG5o-71" target="ipDesZMDNSXh6acfg1Pq-61" edge="1">
          <mxGeometry width="50" height="50" relative="1" as="geometry">
            <mxPoint x="1704" y="542.5" as="sourcePoint" />
            <mxPoint x="1500" y="487.5" as="targetPoint" />
          </mxGeometry>
        </mxCell>
        <mxCell id="exIWR_tdd47xBgkcnG5o-74" value="M" style="text;html=1;align=center;verticalAlign=middle;resizable=0;points=[];autosize=1;strokeColor=none;fillColor=none;" parent="1" vertex="1">
          <mxGeometry x="1715" y="440" width="30" height="30" as="geometry" />
        </mxCell>
        <mxCell id="exIWR_tdd47xBgkcnG5o-76" value="1" style="text;html=1;align=center;verticalAlign=middle;resizable=0;points=[];autosize=1;strokeColor=none;fillColor=none;" parent="1" vertex="1">
          <mxGeometry x="1840" y="440" width="30" height="30" as="geometry" />
        </mxCell>
        <mxCell id="exIWR_tdd47xBgkcnG5o-77" value="GeneratedBy" style="ellipse;whiteSpace=wrap;html=1;" parent="1" vertex="1">
          <mxGeometry x="2210" y="595" width="115" height="50" as="geometry" />
        </mxCell>
        <mxCell id="exIWR_tdd47xBgkcnG5o-78" value="&lt;u&gt;ReportID&lt;/u&gt;" style="ellipse;whiteSpace=wrap;html=1;" parent="1" vertex="1">
          <mxGeometry x="1846" y="585" width="115" height="50" as="geometry" />
        </mxCell>
        <mxCell id="exIWR_tdd47xBgkcnG5o-79" value="TotalAccidents" style="ellipse;whiteSpace=wrap;html=1;" parent="1" vertex="1">
          <mxGeometry x="2095" y="660" width="115" height="50" as="geometry" />
        </mxCell>
        <mxCell id="exIWR_tdd47xBgkcnG5o-80" value="Month" style="ellipse;whiteSpace=wrap;html=1;" parent="1" vertex="1">
          <mxGeometry x="1940" y="670" width="115" height="50" as="geometry" />
        </mxCell>
        <mxCell id="exIWR_tdd47xBgkcnG5o-81" value="" style="endArrow=none;html=1;rounded=0;entryX=0;entryY=0.5;entryDx=0;entryDy=0;exitX=0.5;exitY=0;exitDx=0;exitDy=0;" parent="1" source="exIWR_tdd47xBgkcnG5o-78" target="exIWR_tdd47xBgkcnG5o-65" edge="1">
          <mxGeometry width="50" height="50" relative="1" as="geometry">
            <mxPoint x="1920" y="585" as="sourcePoint" />
            <mxPoint x="1993" y="515" as="targetPoint" />
          </mxGeometry>
        </mxCell>
        <mxCell id="exIWR_tdd47xBgkcnG5o-82" value="" style="endArrow=none;html=1;rounded=0;entryX=0.25;entryY=1;entryDx=0;entryDy=0;exitX=0.5;exitY=0;exitDx=0;exitDy=0;" parent="1" source="exIWR_tdd47xBgkcnG5o-80" target="exIWR_tdd47xBgkcnG5o-65" edge="1">
          <mxGeometry width="50" height="50" relative="1" as="geometry">
            <mxPoint x="1982" y="670" as="sourcePoint" />
            <mxPoint x="2055" y="600" as="targetPoint" />
          </mxGeometry>
        </mxCell>
        <mxCell id="exIWR_tdd47xBgkcnG5o-83" value="" style="endArrow=none;html=1;rounded=0;entryX=0.69;entryY=1.068;entryDx=0;entryDy=0;entryPerimeter=0;exitX=0.347;exitY=0.039;exitDx=0;exitDy=0;exitPerimeter=0;" parent="1" source="exIWR_tdd47xBgkcnG5o-79" target="exIWR_tdd47xBgkcnG5o-65" edge="1">
          <mxGeometry width="50" height="50" relative="1" as="geometry">
            <mxPoint x="2055" y="670" as="sourcePoint" />
            <mxPoint x="2128" y="600" as="targetPoint" />
          </mxGeometry>
        </mxCell>
        <mxCell id="exIWR_tdd47xBgkcnG5o-84" value="" style="endArrow=none;html=1;rounded=0;entryX=1;entryY=0.75;entryDx=0;entryDy=0;exitX=0;exitY=0;exitDx=0;exitDy=0;" parent="1" source="exIWR_tdd47xBgkcnG5o-77" target="exIWR_tdd47xBgkcnG5o-65" edge="1">
          <mxGeometry width="50" height="50" relative="1" as="geometry">
            <mxPoint x="2230" y="600" as="sourcePoint" />
            <mxPoint x="2303" y="530" as="targetPoint" />
          </mxGeometry>
        </mxCell>
        <mxCell id="exIWR_tdd47xBgkcnG5o-85" value="GeneratedDate" style="ellipse;whiteSpace=wrap;html=1;" parent="1" vertex="1">
          <mxGeometry x="2230" y="525" width="115" height="50" as="geometry" />
        </mxCell>
        <mxCell id="exIWR_tdd47xBgkcnG5o-87" value="" style="endArrow=none;html=1;rounded=0;entryX=1;entryY=0.25;entryDx=0;entryDy=0;exitX=0;exitY=0.5;exitDx=0;exitDy=0;" parent="1" source="exIWR_tdd47xBgkcnG5o-85" target="exIWR_tdd47xBgkcnG5o-65" edge="1">
          <mxGeometry width="50" height="50" relative="1" as="geometry">
            <mxPoint x="2230" y="585" as="sourcePoint" />
            <mxPoint x="2144" y="540" as="targetPoint" />
          </mxGeometry>
        </mxCell>
        <mxCell id="exIWR_tdd47xBgkcnG5o-88" value="&lt;span style=&quot;text-align: left;&quot;&gt;InsurancePolicy&lt;/span&gt;" style="html=1;dashed=0;whiteSpace=wrap;" parent="1" vertex="1">
          <mxGeometry x="810" y="150" width="153" height="50" as="geometry" />
        </mxCell>
        <mxCell id="exIWR_tdd47xBgkcnG5o-89" value="insures" style="rhombus;whiteSpace=wrap;html=1;" parent="1" vertex="1">
          <mxGeometry x="820" y="280" width="106" height="60" as="geometry" />
        </mxCell>
        <mxCell id="exIWR_tdd47xBgkcnG5o-90" value="" style="endArrow=none;html=1;rounded=0;entryX=0.5;entryY=1;entryDx=0;entryDy=0;exitX=0.5;exitY=0;exitDx=0;exitDy=0;" parent="1" source="exIWR_tdd47xBgkcnG5o-89" target="exIWR_tdd47xBgkcnG5o-88" edge="1">
          <mxGeometry width="50" height="50" relative="1" as="geometry">
            <mxPoint x="930" y="470" as="sourcePoint" />
            <mxPoint x="941.5" y="135" as="targetPoint" />
          </mxGeometry>
        </mxCell>
        <mxCell id="exIWR_tdd47xBgkcnG5o-91" value="CoverageType" style="ellipse;whiteSpace=wrap;html=1;" parent="1" vertex="1">
          <mxGeometry x="1059" y="80" width="141" height="50" as="geometry" />
        </mxCell>
        <mxCell id="exIWR_tdd47xBgkcnG5o-92" value="" style="endArrow=none;html=1;rounded=0;entryX=0;entryY=1;entryDx=0;entryDy=0;exitX=1;exitY=0.5;exitDx=0;exitDy=0;" parent="1" source="exIWR_tdd47xBgkcnG5o-88" target="exIWR_tdd47xBgkcnG5o-91" edge="1">
          <mxGeometry width="50" height="50" relative="1" as="geometry">
            <mxPoint x="1050" y="270" as="sourcePoint" />
            <mxPoint x="1064" y="190" as="targetPoint" />
          </mxGeometry>
        </mxCell>
        <mxCell id="exIWR_tdd47xBgkcnG5o-93" value="StartDate " style="ellipse;whiteSpace=wrap;html=1;" parent="1" vertex="1">
          <mxGeometry x="891" y="20" width="121.5" height="50" as="geometry" />
        </mxCell>
        <mxCell id="exIWR_tdd47xBgkcnG5o-94" value="" style="endArrow=none;html=1;rounded=0;entryX=0.5;entryY=1;entryDx=0;entryDy=0;exitX=0.5;exitY=0;exitDx=0;exitDy=0;" parent="1" source="exIWR_tdd47xBgkcnG5o-88" target="exIWR_tdd47xBgkcnG5o-93" edge="1">
          <mxGeometry width="50" height="50" relative="1" as="geometry">
            <mxPoint x="895.5" y="150" as="sourcePoint" />
            <mxPoint x="1011.5" y="97" as="targetPoint" />
          </mxGeometry>
        </mxCell>
        <mxCell id="exIWR_tdd47xBgkcnG5o-95" value="EndDate " style="ellipse;whiteSpace=wrap;html=1;" parent="1" vertex="1">
          <mxGeometry x="740" y="30" width="110.5" height="50" as="geometry" />
        </mxCell>
        <mxCell id="exIWR_tdd47xBgkcnG5o-96" value="" style="endArrow=none;html=1;rounded=0;entryX=0.5;entryY=1;entryDx=0;entryDy=0;exitX=0.168;exitY=-0.044;exitDx=0;exitDy=0;exitPerimeter=0;" parent="1" source="exIWR_tdd47xBgkcnG5o-88" target="exIWR_tdd47xBgkcnG5o-95" edge="1">
          <mxGeometry width="50" height="50" relative="1" as="geometry">
            <mxPoint x="827.5" y="150" as="sourcePoint" />
            <mxPoint x="861.5" y="90" as="targetPoint" />
          </mxGeometry>
        </mxCell>
        <mxCell id="exIWR_tdd47xBgkcnG5o-97" value="Premium " style="ellipse;whiteSpace=wrap;html=1;" parent="1" vertex="1">
          <mxGeometry x="640" y="90" width="110.5" height="50" as="geometry" />
        </mxCell>
        <mxCell id="exIWR_tdd47xBgkcnG5o-98" value="" style="endArrow=none;html=1;rounded=0;entryX=0.5;entryY=1;entryDx=0;entryDy=0;exitX=0;exitY=0.5;exitDx=0;exitDy=0;" parent="1" source="exIWR_tdd47xBgkcnG5o-88" target="exIWR_tdd47xBgkcnG5o-97" edge="1">
          <mxGeometry width="50" height="50" relative="1" as="geometry">
            <mxPoint x="804.25" y="208" as="sourcePoint" />
            <mxPoint x="740.25" y="150" as="targetPoint" />
          </mxGeometry>
        </mxCell>
        <mxCell id="exIWR_tdd47xBgkcnG5o-99" value="1" style="text;html=1;align=center;verticalAlign=middle;resizable=0;points=[];autosize=1;strokeColor=none;fillColor=none;" parent="1" vertex="1">
          <mxGeometry x="871.5" y="330" width="30" height="30" as="geometry" />
        </mxCell>
        <mxCell id="exIWR_tdd47xBgkcnG5o-100" value="M" style="text;html=1;align=center;verticalAlign=middle;resizable=0;points=[];autosize=1;strokeColor=none;fillColor=none;" parent="1" vertex="1">
          <mxGeometry x="871.5" y="260" width="30" height="30" as="geometry" />
        </mxCell>
        <mxCell id="exIWR_tdd47xBgkcnG5o-103" value="Status" style="ellipse;whiteSpace=wrap;html=1;" parent="1" vertex="1">
          <mxGeometry x="912.25" y="715" width="79" height="50" as="geometry" />
        </mxCell>
        <mxCell id="exIWR_tdd47xBgkcnG5o-104" value="" style="endArrow=none;html=1;rounded=0;entryX=0.75;entryY=1;entryDx=0;entryDy=0;exitX=0.5;exitY=0;exitDx=0;exitDy=0;" parent="1" source="exIWR_tdd47xBgkcnG5o-103" target="ipDesZMDNSXh6acfg1Pq-79" edge="1">
          <mxGeometry width="50" height="50" relative="1" as="geometry">
            <mxPoint x="1026" y="643" as="sourcePoint" />
            <mxPoint x="926" y="530" as="targetPoint" />
          </mxGeometry>
        </mxCell>
        <mxCell id="exIWR_tdd47xBgkcnG5o-105" value="" style="endArrow=none;html=1;rounded=0;exitX=1;exitY=0;exitDx=0;exitDy=0;entryX=0.5;entryY=1;entryDx=0;entryDy=0;" parent="1" source="ipDesZMDNSXh6acfg1Pq-79" target="exIWR_tdd47xBgkcnG5o-106" edge="1">
          <mxGeometry width="50" height="50" relative="1" as="geometry">
            <mxPoint x="325" y="590" as="sourcePoint" />
            <mxPoint x="460" y="450" as="targetPoint" />
            <Array as="points" />
          </mxGeometry>
        </mxCell>
        <mxCell id="exIWR_tdd47xBgkcnG5o-106" value="LicenseIssueDate" style="ellipse;whiteSpace=wrap;html=1;" parent="1" vertex="1">
          <mxGeometry x="891" y="380" width="150" height="60" as="geometry" />
        </mxCell>
        <mxCell id="exIWR_tdd47xBgkcnG5o-107" value="LicenseExpiryDate" style="ellipse;whiteSpace=wrap;html=1;" parent="1" vertex="1">
          <mxGeometry x="620" y="420" width="126" height="60" as="geometry" />
        </mxCell>
        <mxCell id="exIWR_tdd47xBgkcnG5o-108" value="" style="endArrow=none;html=1;rounded=0;exitX=0;exitY=0;exitDx=0;exitDy=0;entryX=0.5;entryY=1;entryDx=0;entryDy=0;" parent="1" source="ipDesZMDNSXh6acfg1Pq-79" target="exIWR_tdd47xBgkcnG5o-107" edge="1">
          <mxGeometry width="50" height="50" relative="1" as="geometry">
            <mxPoint x="337" y="589" as="sourcePoint" />
            <mxPoint x="486" y="465" as="targetPoint" />
            <Array as="points" />
          </mxGeometry>
        </mxCell>
        <mxCell id="exIWR_tdd47xBgkcnG5o-109" value="" style="endArrow=none;html=1;rounded=0;exitX=0.25;exitY=0;exitDx=0;exitDy=0;entryX=0.413;entryY=0.996;entryDx=0;entryDy=0;entryPerimeter=0;" parent="1" source="ipDesZMDNSXh6acfg1Pq-79" target="exIWR_tdd47xBgkcnG5o-110" edge="1">
          <mxGeometry width="50" height="50" relative="1" as="geometry">
            <mxPoint x="337" y="589" as="sourcePoint" />
            <mxPoint x="440" y="380" as="targetPoint" />
            <Array as="points" />
          </mxGeometry>
        </mxCell>
        <mxCell id="exIWR_tdd47xBgkcnG5o-110" value="&lt;u&gt;LicenseNumber&lt;/u&gt;" style="ellipse;whiteSpace=wrap;html=1;" parent="1" vertex="1">
          <mxGeometry x="680" y="350" width="150" height="60" as="geometry" />
        </mxCell>
        <mxCell id="Kt74wWyI747XTfWLrmEe-1" value="" style="group" vertex="1" connectable="0" parent="1">
          <mxGeometry x="-240" y="700" width="100" height="40" as="geometry" />
        </mxCell>
        <mxCell id="ipDesZMDNSXh6acfg1Pq-4" value="" style="ellipse;whiteSpace=wrap;html=1;align=center;fontStyle=4;" parent="Kt74wWyI747XTfWLrmEe-1" vertex="1">
          <mxGeometry width="100" height="40" as="geometry" />
        </mxCell>
        <mxCell id="ipDesZMDNSXh6acfg1Pq-42" value="password" style="text;html=1;align=center;verticalAlign=middle;resizable=0;points=[];autosize=1;strokeColor=none;fillColor=none;" parent="Kt74wWyI747XTfWLrmEe-1" vertex="1">
          <mxGeometry x="15" y="5" width="70" height="30" as="geometry" />
        </mxCell>
        <mxCell id="Kt74wWyI747XTfWLrmEe-2" value="" style="group" vertex="1" connectable="0" parent="1">
          <mxGeometry x="1300" y="690" width="120" height="50" as="geometry" />
        </mxCell>
        <mxCell id="ipDesZMDNSXh6acfg1Pq-69" value="" style="ellipse;whiteSpace=wrap;html=1;align=center;fontStyle=4;" parent="Kt74wWyI747XTfWLrmEe-2" vertex="1">
          <mxGeometry x="5" width="110" height="50" as="geometry" />
        </mxCell>
        <mxCell id="ipDesZMDNSXh6acfg1Pq-95" value="&lt;span style=&quot;text-align: left; text-wrap-mode: wrap;&quot;&gt;accident&amp;nbsp;&lt;/span&gt;Location" style="text;html=1;align=center;verticalAlign=middle;resizable=0;points=[];autosize=1;strokeColor=none;fillColor=none;" parent="Kt74wWyI747XTfWLrmEe-2" vertex="1">
          <mxGeometry y="10" width="120" height="30" as="geometry" />
        </mxCell>
        <mxCell id="Kt74wWyI747XTfWLrmEe-3" value="" style="group" vertex="1" connectable="0" parent="1">
          <mxGeometry x="970" y="640" width="100" height="40" as="geometry" />
        </mxCell>
        <mxCell id="ipDesZMDNSXh6acfg1Pq-87" value="" style="ellipse;whiteSpace=wrap;html=1;align=center;fontStyle=4;" parent="Kt74wWyI747XTfWLrmEe-3" vertex="1">
          <mxGeometry width="100" height="40" as="geometry" />
        </mxCell>
        <mxCell id="ipDesZMDNSXh6acfg1Pq-90" value="Model" style="text;html=1;align=center;verticalAlign=middle;resizable=0;points=[];autosize=1;strokeColor=none;fillColor=none;" parent="Kt74wWyI747XTfWLrmEe-3" vertex="1">
          <mxGeometry x="20" y="5" width="60" height="30" as="geometry" />
        </mxCell>
        <mxCell id="Kt74wWyI747XTfWLrmEe-4" value="form" style="ellipse;whiteSpace=wrap;html=1;" vertex="1" parent="1">
          <mxGeometry x="962" y="800" width="79" height="50" as="geometry" />
        </mxCell>
        <mxCell id="Kt74wWyI747XTfWLrmEe-5" value="insurance_type" style="ellipse;whiteSpace=wrap;html=1;" vertex="1" parent="1">
          <mxGeometry x="827" y="800" width="93" height="50" as="geometry" />
        </mxCell>
        <mxCell id="Kt74wWyI747XTfWLrmEe-6" value="" style="endArrow=none;html=1;rounded=0;exitX=0.884;exitY=0.145;exitDx=0;exitDy=0;exitPerimeter=0;entryX=0.5;entryY=1;entryDx=0;entryDy=0;" edge="1" parent="1" source="Kt74wWyI747XTfWLrmEe-5" target="exIWR_tdd47xBgkcnG5o-103">
          <mxGeometry width="50" height="50" relative="1" as="geometry">
            <mxPoint x="970" y="830" as="sourcePoint" />
            <mxPoint x="1020" y="780" as="targetPoint" />
          </mxGeometry>
        </mxCell>
        <mxCell id="Kt74wWyI747XTfWLrmEe-7" value="" style="endArrow=none;html=1;rounded=0;exitX=0.5;exitY=0;exitDx=0;exitDy=0;entryX=0.5;entryY=1;entryDx=0;entryDy=0;" edge="1" parent="1" source="Kt74wWyI747XTfWLrmEe-4" target="exIWR_tdd47xBgkcnG5o-103">
          <mxGeometry width="50" height="50" relative="1" as="geometry">
            <mxPoint x="920" y="780" as="sourcePoint" />
            <mxPoint x="970" y="730" as="targetPoint" />
          </mxGeometry>
        </mxCell>
        <mxCell id="Kt74wWyI747XTfWLrmEe-8" value="first_Name" style="ellipse;whiteSpace=wrap;html=1;" vertex="1" parent="1">
          <mxGeometry x="290" y="765" width="91" height="50" as="geometry" />
        </mxCell>
        <mxCell id="Kt74wWyI747XTfWLrmEe-9" value="Last_Name" style="ellipse;whiteSpace=wrap;html=1;" vertex="1" parent="1">
          <mxGeometry x="429" y="765" width="91" height="50" as="geometry" />
        </mxCell>
        <mxCell id="Kt74wWyI747XTfWLrmEe-10" value="" style="endArrow=none;html=1;rounded=0;entryX=0.5;entryY=0;entryDx=0;entryDy=0;exitX=0.5;exitY=1;exitDx=0;exitDy=0;" edge="1" parent="1" source="exIWR_tdd47xBgkcnG5o-40" target="Kt74wWyI747XTfWLrmEe-8">
          <mxGeometry width="50" height="50" relative="1" as="geometry">
            <mxPoint x="383" y="702" as="sourcePoint" />
            <mxPoint x="350" y="640" as="targetPoint" />
          </mxGeometry>
        </mxCell>
        <mxCell id="Kt74wWyI747XTfWLrmEe-11" value="" style="endArrow=none;html=1;rounded=0;entryX=0.5;entryY=1;entryDx=0;entryDy=0;exitX=0.5;exitY=0;exitDx=0;exitDy=0;" edge="1" parent="1" source="Kt74wWyI747XTfWLrmEe-9" target="exIWR_tdd47xBgkcnG5o-40">
          <mxGeometry width="50" height="50" relative="1" as="geometry">
            <mxPoint x="490" y="735" as="sourcePoint" />
            <mxPoint x="457" y="673" as="targetPoint" />
          </mxGeometry>
        </mxCell>
      </root>
    </mxGraphModel>
  </diagram>
</mxfile>
